name Run_40002_GRF.mot
datacolumns 19
datarows 28
range 2.224 2.251
endheader
time	     ground_force_vx	     ground_force_vy	     ground_force_vz	     ground_force_px	     ground_force_py	     ground_force_pz	   l_ground_force_vx	   l_ground_force_vy	   l_ground_force_vz	   l_ground_force_px	   l_ground_force_py	   l_ground_force_pz	     ground_torque_x	     ground_torque_y	     ground_torque_z	   l_ground_torque_x	   l_ground_torque_y	   l_ground_torque_z	
2.224	          0.00000000	          0.00000000	          0.00000000	          0.00000000	          0.00000000	          0.00000000	          0.00000000	          0.00000000	          0.00000000	          0.00000000	          0.00000000	          0.00000000	          0.00000000	          0.00000000	          0.00000000	          0.00000000	          0.00000000	          0.00000000	
2.225	         -4.48947800	         10.25096800	         -3.99092700	          1.02064600	          0.00000000	         -0.25505100	          0.00000000	          0.00000000	          0.00000000	          0.00000000	          0.00000000	          0.00000000	          0.00000000	         -0.97438900	          0.00000000	          0.00000000	          0.00000000	          0.00000000	
2.226	         -5.09333500	         11.87228200	         -4.49411500	          1.03349400	          0.00000000	         -0.26189700	          0.00000000	          0.00000000	          0.00000000	          0.00000000	          0.00000000	          0.00000000	          0.00000000	         -0.77670800	          0.00000000	          0.00000000	          0.00000000	          0.00000000	
2.227	         -5.77248900	         13.76275300	         -5.04351900	          1.04495500	          0.00000000	         -0.26798300	          0.00000000	          0.00000000	          0.00000000	          0.00000000	          0.00000000	          0.00000000	          0.00000000	         -0.56737100	          0.00000000	          0.00000000	          0.00000000	          0.00000000	
2.228	         -6.53378300	         15.95672100	         -5.64174300	          1.05504300	          0.00000000	         -0.27336500	          0.00000000	          0.00000000	          0.00000000	          0.00000000	          0.00000000	          0.00000000	          0.00000000	         -0.34661400	          0.00000000	          0.00000000	          0.00000000	          0.00000000	
2.229	         -7.38386500	         18.49177200	         -6.29131200	          1.06381800	          0.00000000	         -0.27810900	          0.00000000	          0.00000000	          0.00000000	          0.00000000	          0.00000000	          0.00000000	          0.00000000	         -0.11473100	          0.00000000	          0.00000000	          0.00000000	          0.00000000	
2.23	         -8.32896100	         21.40880400	         -6.99463700	          1.07136800	          0.00000000	         -0.28227700	          0.00000000	          0.00000000	          0.00000000	          0.00000000	          0.00000000	          0.00000000	         -0.00000000	          0.12793100	         -0.00000000	          0.00000000	          0.00000000	          0.00000000	
2.231	         -9.37460800	         24.75205000	         -7.75397800	          1.07780000	          0.00000000	         -0.28593200	          0.00000000	          0.00000000	          0.00000000	          0.00000000	          0.00000000	          0.00000000	         -0.00000000	          0.38097000	         -0.00000000	          0.00000000	          0.00000000	          0.00000000	
2.232	        -10.52535700	         28.56904600	         -8.57139400	          1.08322700	          0.00000000	         -0.28913300	          0.00000000	          0.00000000	          0.00000000	          0.00000000	          0.00000000	          0.00000000	         -0.00000000	          0.64393000	         -0.00000000	          0.00000000	          0.00000000	          0.00000000	
2.233	        -11.78446800	         32.91050700	         -9.44869700	          1.08776400	          0.00000000	         -0.29193100	          0.00000000	          0.00000000	          0.00000000	          0.00000000	          0.00000000	          0.00000000	         -0.00000000	          0.91630000	         -0.00000000	          0.00000000	          0.00000000	          0.00000000	
2.234	        -13.15357700	         37.83016600	        -10.38740300	          1.09152000	          0.00000000	         -0.29437700	          0.00000000	          0.00000000	          0.00000000	          0.00000000	          0.00000000	          0.00000000	         -0.00000000	          1.19751700	         -0.00000000	          0.00000000	          0.00000000	          0.00000000	
2.235	        -14.63239400	         43.38447600	        -11.38866800	          1.09460100	          0.00000000	         -0.29651300	          0.00000000	          0.00000000	          0.00000000	          0.00000000	          0.00000000	          0.00000000	         -0.00000000	          1.48696500	         -0.00000000	          0.00000000	          0.00000000	          0.00000000	
2.236	        -16.21840500	         49.63229800	        -12.45324200	          1.09710200	          0.00000000	         -0.29837800	          0.00000000	          0.00000000	          0.00000000	          0.00000000	          0.00000000	          0.00000000	         -0.00000000	          1.78398000	         -0.00000000	          0.00000000	          0.00000000	          0.00000000	
2.237	        -17.90662800	         56.63443000	        -13.58140400	          1.09911200	          0.00000000	         -0.30000600	          0.00000000	          0.00000000	          0.00000000	          0.00000000	          0.00000000	          0.00000000	         -0.00000000	          2.08784500	         -0.00000000	          0.00000000	          0.00000000	          0.00000000	
2.238	        -19.68942100	         64.45307900	        -14.77289600	          1.10070600	          0.00000000	         -0.30142900	          0.00000000	          0.00000000	          0.00000000	          0.00000000	          0.00000000	          0.00000000	         -0.00000000	          2.39780200	         -0.00000000	          0.00000000	          0.00000000	          0.00000000	
2.239	        -21.55637400	         73.15125300	        -16.02687100	          1.10195200	          0.00000000	         -0.30267300	          0.00000000	          0.00000000	          0.00000000	          0.00000000	          0.00000000	          0.00000000	         -0.00000000	          2.71304400	         -0.00000000	          0.00000000	          0.00000000	          0.00000000	
2.24	        -23.49429700	         82.79203000	        -17.34182900	          1.10290700	          0.00000000	         -0.30376300	          0.00000000	          0.00000000	          0.00000000	          0.00000000	          0.00000000	          0.00000000	         -0.00000000	          3.03272600	         -0.00000000	          0.00000000	          0.00000000	          0.00000000	
2.241	        -25.48731800	         93.43773700	        -18.71556100	          1.10362000	          0.00000000	         -0.30472000	          0.00000000	          0.00000000	          0.00000000	          0.00000000	          0.00000000	          0.00000000	         -0.00000000	          3.35596500	         -0.00000000	          0.00000000	          0.00000000	          0.00000000	
2.242	        -27.51709700	        105.14907800	        -20.14508800	          1.10413200	          0.00000000	         -0.30556200	          0.00000000	          0.00000000	          0.00000000	          0.00000000	          0.00000000	          0.00000000	         -0.00000000	          3.68184200	         -0.00000000	          0.00000000	          0.00000000	          0.00000000	
2.243	        -29.56317300	        117.98416100	        -21.62662500	          1.10447300	          0.00000000	         -0.30630800	          0.00000000	          0.00000000	          0.00000000	          0.00000000	          0.00000000	          0.00000000	         -0.00000000	          4.00940800	         -0.00000000	          0.00000000	          0.00000000	          0.00000000	
2.244	        -31.60342800	        131.99737500	        -23.15552100	          1.10467100	          0.00000000	         -0.30697000	          0.00000000	          0.00000000	          0.00000000	          0.00000000	          0.00000000	          0.00000000	         -0.00000000	          4.33768700	         -0.00000000	          0.00000000	          0.00000000	          0.00000000	
2.245	        -33.61468100	        147.23831200	        -24.72624200	          1.10474400	          0.00000000	         -0.30756300	          0.00000000	          0.00000000	          0.00000000	          0.00000000	          0.00000000	          0.00000000	         -0.00000000	          4.66568000	         -0.00000000	          0.00000000	          0.00000000	          0.00000000	
2.246	        -35.57337600	        163.75053400	        -26.33233100	          1.10470900	          0.00000000	         -0.30809700	          0.00000000	          0.00000000	          0.00000000	          0.00000000	          0.00000000	          0.00000000	         -0.00000000	          4.99237300	         -0.00000000	          0.00000000	          0.00000000	          0.00000000	
2.247	        -37.45636700	        181.57026700	        -27.96640800	          1.10457600	          0.00000000	         -0.30858200	          0.00000000	          0.00000000	          0.00000000	          0.00000000	          0.00000000	          0.00000000	         -0.00000000	          5.31673500	         -0.00000000	          0.00000000	          0.00000000	          0.00000000	
2.248	        -39.24177200	        200.72511300	        -29.62016300	          1.10435200	          0.00000000	         -0.30902700	          0.00000000	          0.00000000	          0.00000000	          0.00000000	          0.00000000	          0.00000000	         -0.00000000	          5.63773000	         -0.00000000	          0.00000000	          0.00000000	          0.00000000	
2.249	        -40.90982100	        221.23268100	        -31.28437000	          1.10404400	          0.00000000	         -0.30944000	          0.00000000	          0.00000000	          0.00000000	          0.00000000	          0.00000000	          0.00000000	         -0.00000000	          5.95431800	         -0.00000000	          0.00000000	          0.00000000	          0.00000000	
2.25	        -42.44374800	        243.09922800	        -32.94892500	          1.10365400	          0.00000000	         -0.30982700	          0.00000000	          0.00000000	          0.00000000	          0.00000000	          0.00000000	          0.00000000	         -0.00000000	          6.26546000	         -0.00000000	          0.00000000	          0.00000000	          0.00000000	
2.251	        -43.83059700	        266.31832900	        -34.60289000	          1.10318700	          0.00000000	         -0.31019300	          0.00000000	          0.00000000	          0.00000000	          0.00000000	          0.00000000	          0.00000000	         -0.00000000	          6.57012800	         -0.00000000	          0.00000000	          0.00000000	          0.00000000	
